<?xml version="1.0" encoding="UTF-8" standalone="no"?>
<!DOCTYPE svg PUBLIC "-//W3C//DTD SVG 1.1//EN"
 "http://www.w3.org/Graphics/SVG/1.1/DTD/svg11.dtd">
<!-- Generated by graphviz version 2.44.0 (0)
 -->
<!-- Title: Tree Pages: 1 -->
<svg width="214pt" height="152pt"
 viewBox="0.00 0.00 213.50 152.00" xmlns="http://www.w3.org/2000/svg" xmlns:xlink="http://www.w3.org/1999/xlink">
<g id="graph0" class="graph" transform="scale(1 1) rotate(0) translate(4 148)">
<title>Tree</title>
<polygon fill="white" stroke="transparent" points="-4,4 -4,-148 209.5,-148 209.5,4 -4,4"/>
<!-- n -->
<g id="node1" class="node">
<title>n</title>
<polygon fill="none" stroke="black" points="89.5,-120.5 89.5,-143.5 140.5,-143.5 140.5,-120.5 89.5,-120.5"/>
<text text-anchor="middle" x="102" y="-128.3" font-family="Times,serif" font-size="14.00">a</text>
<polyline fill="none" stroke="black" points="114.5,-120.5 114.5,-143.5 "/>
<text text-anchor="middle" x="127.5" y="-128.3" font-family="Times,serif" font-size="14.00">b</text>
</g>
<!-- n_0 -->
<g id="node2" class="node">
<title>n_0</title>
<polygon fill="none" stroke="black" points="46,-60.5 46,-83.5 96,-83.5 96,-60.5 46,-60.5"/>
<text text-anchor="middle" x="58" y="-68.3" font-family="Times,serif" font-size="14.00">c</text>
<polyline fill="none" stroke="black" points="70,-60.5 70,-83.5 "/>
<text text-anchor="middle" x="83" y="-68.3" font-family="Times,serif" font-size="14.00">d</text>
</g>
<!-- n&#45;&gt;n_0 -->
<g id="edge1" class="edge">
<title>n:p0&#45;&gt;n_0:n</title>
<path fill="none" stroke="black" d="M102,-120C102,-103.01 81.93,-103.72 74.09,-93.65"/>
<polygon fill="black" stroke="black" points="77.38,-92.46 71,-84 70.71,-94.59 77.38,-92.46"/>
</g>
<!-- n_1 -->
<g id="node3" class="node">
<title>n_1</title>
<polygon fill="none" stroke="black" points="133,-60.5 133,-83.5 185,-83.5 185,-60.5 133,-60.5"/>
<text text-anchor="middle" x="146" y="-68.3" font-family="Times,serif" font-size="14.00">g</text>
<polyline fill="none" stroke="black" points="159,-60.5 159,-83.5 "/>
<text text-anchor="middle" x="172" y="-68.3" font-family="Times,serif" font-size="14.00">h</text>
</g>
<!-- n&#45;&gt;n_1 -->
<g id="edge2" class="edge">
<title>n:p1&#45;&gt;n_1:n</title>
<path fill="none" stroke="black" d="M128,-120C128,-103.01 148.07,-103.72 155.91,-93.65"/>
<polygon fill="black" stroke="black" points="159.29,-94.59 159,-84 152.62,-92.46 159.29,-94.59"/>
</g>
<!-- n_0_0 -->
<g id="node4" class="node">
<title>n_0_0</title>
<polygon fill="none" stroke="black" points="0,-0.5 0,-23.5 42,-23.5 42,-0.5 0,-0.5"/>
<text text-anchor="middle" x="10.5" y="-8.3" font-family="Times,serif" font-size="14.00">i</text>
<polyline fill="none" stroke="black" points="21,-0.5 21,-23.5 "/>
<text text-anchor="middle" x="31.5" y="-8.3" font-family="Times,serif" font-size="14.00">j</text>
</g>
<!-- n_0&#45;&gt;n_0_0 -->
<g id="edge3" class="edge">
<title>n_0:p0&#45;&gt;n_0_0:n</title>
<path fill="none" stroke="black" d="M58,-60C58,-41.18 33.1,-44.45 24.15,-33.57"/>
<polygon fill="black" stroke="black" points="27.46,-32.4 21,-24 20.81,-34.59 27.46,-32.4"/>
</g>
<!-- n_0_1 -->
<g id="node5" class="node">
<title>n_0_1</title>
<polygon fill="none" stroke="black" points="60,-0.5 60,-23.5 106,-23.5 106,-0.5 60,-0.5"/>
<text text-anchor="middle" x="72.5" y="-8.3" font-family="Times,serif" font-size="14.00">k</text>
<polyline fill="none" stroke="black" points="85,-0.5 85,-23.5 "/>
<text text-anchor="middle" x="95.5" y="-8.3" font-family="Times,serif" font-size="14.00">l</text>
</g>
<!-- n_0&#45;&gt;n_0_1 -->
<g id="edge4" class="edge">
<title>n_0:p1&#45;&gt;n_0_1:n</title>
<path fill="none" stroke="black" d="M83,-60C83,-48 83,-42.75 83,-34.12"/>
<polygon fill="black" stroke="black" points="86.5,-34 83,-24 79.5,-34 86.5,-34"/>
</g>
<!-- n_1_0 -->
<g id="node6" class="node">
<title>n_1_0</title>
<polygon fill="none" stroke="black" points="124.5,-0.5 124.5,-23.5 205.5,-23.5 205.5,-0.5 124.5,-0.5"/>
<text text-anchor="middle" x="139.5" y="-8.3" font-family="Times,serif" font-size="14.00">m</text>
<polyline fill="none" stroke="black" points="154.5,-0.5 154.5,-23.5 "/>
<text text-anchor="middle" x="167.5" y="-8.3" font-family="Times,serif" font-size="14.00">n</text>
<polyline fill="none" stroke="black" points="180.5,-0.5 180.5,-23.5 "/>
<text text-anchor="middle" x="193" y="-8.3" font-family="Times,serif" font-size="14.00">o</text>
</g>
<!-- n_1&#45;&gt;n_1_0 -->
<g id="edge5" class="edge">
<title>n_1:p0&#45;&gt;n_1_0:n</title>
<path fill="none" stroke="black" d="M146,-60C146,-46.01 157.37,-42.95 162.52,-33.91"/>
<polygon fill="black" stroke="black" points="165.96,-34.55 165,-24 159.17,-32.85 165.96,-34.55"/>
</g>
</g>
</svg>
